<svg xmlns="http://www.w3.org/2000/svg" xmlns:xlink="http://www.w3.org/1999/xlink" width="500" zoomAndPan="magnify" viewBox="0 0 375 374.999991" height="500" preserveAspectRatio="xMidYMid meet" version="1.0"><defs><clipPath id="bd48aa97d8"><path d="M 12.554688 59.363281 L 362.804688 59.363281 L 362.804688 315.628906 L 12.554688 315.628906 Z M 12.554688 59.363281 " clip-rule="nonzero"/></clipPath></defs><g clip-path="url(#bd48aa97d8)"><path fill="#ffffff" d="M 362.441406 210.996094 L 362.441406 164.34375 C 362.441406 161.125 359.832031 158.515625 356.613281 158.515625 L 119.296875 158.515625 L 174.167969 102.550781 C 176.390625 100.289062 176.398438 96.671875 174.179688 94.402344 L 141.800781 61.148438 C 140.703125 60.019531 139.199219 59.378906 137.625 59.378906 C 136.050781 59.378906 134.542969 60.015625 133.449219 61.148438 L 14.210938 183.605469 C 12.007812 185.871094 12.007812 189.480469 14.210938 191.742188 L 133.449219 314.203125 C 134.542969 315.328125 136.050781 315.964844 137.625 315.964844 C 139.199219 315.964844 140.703125 315.328125 141.800781 314.203125 L 174.179688 280.945312 C 176.386719 278.675781 176.390625 275.054688 174.167969 272.792969 L 119.296875 216.828125 L 356.613281 216.828125 C 359.832031 216.828125 362.441406 214.214844 362.441406 210.996094 Z M 362.441406 210.996094 " fill-opacity="1" fill-rule="nonzero"/></g></svg>