<svg xmlns="http://www.w3.org/2000/svg" xmlns:xlink="http://www.w3.org/1999/xlink" width="500" zoomAndPan="magnify" viewBox="0 0 375 374.999991" height="500" preserveAspectRatio="xMidYMid meet" version="1.0"><defs><clipPath id="45735c6a0b"><path d="M 12.554688 59.363281 L 362.441406 59.363281 L 362.441406 315.863281 L 12.554688 315.863281 Z M 12.554688 59.363281 " clip-rule="nonzero"/></clipPath></defs><g clip-path="url(#45735c6a0b)"><path fill="#ffffff" d="M 12.554688 163.996094 L 12.554688 210.648438 C 12.554688 213.867188 15.167969 216.480469 18.386719 216.480469 L 255.703125 216.480469 L 200.832031 272.441406 C 198.609375 274.707031 198.601562 278.320312 200.820312 280.589844 L 233.199219 313.847656 C 234.296875 314.972656 235.800781 315.613281 237.375 315.613281 C 238.949219 315.613281 240.457031 314.976562 241.550781 313.847656 L 360.785156 191.386719 C 362.992188 189.125 362.992188 185.515625 360.785156 183.25 L 241.550781 60.789062 C 240.457031 59.664062 238.949219 59.03125 237.375 59.03125 C 235.800781 59.03125 234.296875 59.664062 233.199219 60.789062 L 200.820312 94.046875 C 198.613281 96.316406 198.609375 99.9375 200.832031 102.199219 L 255.703125 158.164062 L 18.386719 158.164062 C 15.167969 158.164062 12.554688 160.777344 12.554688 163.996094 Z M 12.554688 163.996094 " fill-opacity="1" fill-rule="nonzero"/></g></svg>