<svg xmlns="http://www.w3.org/2000/svg" xmlns:xlink="http://www.w3.org/1999/xlink" width="500" zoomAndPan="magnify" viewBox="0 0 375 374.999991" height="500" preserveAspectRatio="xMidYMid meet" version="1.0"><defs><clipPath id="623afc0e3c"><path d="M 21 150.0625 L 120 150.0625 L 120 275 L 21 275 Z M 21 150.0625 " clip-rule="nonzero"/></clipPath><clipPath id="efc3fe4f9c"><path d="M 132 150.0625 L 230 150.0625 L 230 278 L 132 278 Z M 132 150.0625 " clip-rule="nonzero"/></clipPath><clipPath id="c0c1c64e21"><path d="M 243 150.0625 L 342 150.0625 L 342 275 L 243 275 Z M 243 150.0625 " clip-rule="nonzero"/></clipPath><clipPath id="029b71644d"><path d="M 20.109375 294 L 54 294 L 54 336 L 20.109375 336 Z M 20.109375 294 " clip-rule="nonzero"/></clipPath><clipPath id="61e53e3dac"><path d="M 60 293 L 98.972656 293 L 98.972656 336.0625 L 60 336.0625 Z M 60 293 " clip-rule="nonzero"/></clipPath><clipPath id="c7459aa0cd"><path d="M 183 293 L 222 293 L 222 336.0625 L 183 336.0625 Z M 183 293 " clip-rule="nonzero"/></clipPath><clipPath id="f46637f691"><path d="M 228.0625 294.117188 L 262 294.117188 L 262 336.0625 L 228.0625 336.0625 Z M 228.0625 294.117188 " clip-rule="nonzero"/></clipPath><clipPath id="83448a50f5"><path d="M 30 168 L 100.894531 168 L 100.894531 178.980469 L 30 178.980469 Z M 127.867188 202.675781 L 128 202.675781 L 128 214.242188 L 127.867188 214.242188 Z M 70.835938 258.308594 L 128 258.308594 L 128 266.691406 L 70.835938 266.691406 Z M 70.835938 258.308594 " clip-rule="nonzero"/></clipPath><clipPath id="1af04d7069"><path d="M 191.777344 178.980469 L 238 178.980469 L 238 188.804688 L 191.777344 188.804688 Z M 141 202.675781 L 238 202.675781 L 238 214.242188 L 141 214.242188 Z M 141 202.675781 " clip-rule="nonzero"/></clipPath><clipPath id="2a62d304fc"><path d="M 265.046875 168 L 317.066406 168 L 317.066406 178.980469 L 265.046875 178.980469 Z M 301.035156 214.242188 L 346.546875 214.242188 L 346.546875 220.597656 L 301.035156 220.597656 Z M 253.601562 261.632812 L 350 261.632812 L 350 271.75 L 253.601562 271.75 Z M 253.601562 261.632812 " clip-rule="nonzero"/></clipPath><clipPath id="4dc7db87f7"><path d="M 49.738281 304.40625 L 62.179688 304.40625 L 62.179688 311.640625 L 49.738281 311.640625 Z M 49.738281 304.40625 " clip-rule="nonzero"/></clipPath><clipPath id="7af2530226"><path d="M 68.417969 304.40625 L 88.175781 304.40625 L 88.175781 311.640625 L 68.417969 311.640625 Z M 68.417969 304.40625 " clip-rule="nonzero"/></clipPath><clipPath id="66e33d1e1d"><path d="M 116.5 325.214844 L 142.625 325.214844 L 142.625 330.996094 L 116.5 330.996094 Z M 116.5 325.214844 " clip-rule="nonzero"/></clipPath><clipPath id="80f06025af"><path d="M 162.582031 325.214844 L 182.101562 325.214844 L 182.101562 330.996094 L 162.582031 330.996094 Z M 162.582031 325.214844 " clip-rule="nonzero"/></clipPath><clipPath id="f63a3453ca"><path d="M 212.449219 311.640625 L 231 311.640625 L 231 317.699219 L 212.449219 317.699219 Z M 212.449219 311.640625 " clip-rule="nonzero"/></clipPath><clipPath id="79af44d489"><path d="M 236.167969 311.640625 L 270.46875 311.640625 L 270.46875 317.699219 L 236.167969 317.699219 Z M 236.167969 311.640625 " clip-rule="nonzero"/></clipPath><clipPath id="f1b2440319"><path d="M 292.503906 332.148438 L 312 332.148438 L 312 335.898438 L 292.503906 335.898438 Z M 292.503906 332.148438 " clip-rule="nonzero"/></clipPath><clipPath id="94144caa44"><path d="M 337.648438 308.453125 L 354.609375 308.453125 L 354.609375 314.828125 L 337.648438 314.828125 Z M 320.355469 332.148438 L 353.191406 332.148438 L 353.191406 335.898438 L 320.355469 335.898438 Z M 320.355469 332.148438 " clip-rule="nonzero"/></clipPath><clipPath id="0db5dc13c5"><path d="M 78.113281 74.429688 L 289.613281 74.429688 L 289.613281 200.96875 L 78.113281 200.96875 Z M 78.113281 74.429688 " clip-rule="nonzero"/></clipPath></defs><g clip-path="url(#623afc0e3c)"><path fill="#ffffff" d="M 75.621094 274.820312 L 104.796875 274.820312 L 104.796875 266.695312 L 75.5625 266.695312 Z M 104.796875 227.296875 L 104.796875 198.488281 L 79.03125 198.488281 L 75.8125 227.296875 L 52.316406 227.296875 L 74.183594 178.980469 L 44.59375 178.980469 L 21.433594 229.628906 L 21.433594 248.539062 L 75.433594 248.539062 L 75.5 258.308594 L 104.796875 258.308594 L 104.796875 248.539062 L 119.195312 248.539062 L 119.195312 227.296875 Z M 57.816406 150.066406 L 49.613281 167.996094 L 79.160156 167.996094 L 83.199219 159.0625 L 57.816406 150.066406 " fill-opacity="1" fill-rule="nonzero"/></g><g clip-path="url(#efc3fe4f9c)"><path fill="#ffffff" d="M 226.429688 188.800781 L 196.640625 188.800781 C 197.359375 192.566406 197.851562 197.195312 198.128906 202.675781 L 228.605469 202.675781 C 228.179688 197.707031 227.453125 193.085938 226.429688 188.800781 Z M 216.675781 166.988281 C 208.394531 156.074219 196.429688 150.609375 180.773438 150.609375 C 165.105469 150.609375 153.140625 156.074219 144.871094 166.988281 C 138.210938 175.777344 134.230469 187.667969 132.929688 202.675781 L 163.414062 202.675781 C 163.703125 197.160156 164.214844 192.523438 164.949219 188.765625 C 166.144531 182.648438 168.011719 178.269531 170.542969 175.632812 C 173.066406 172.988281 176.472656 171.667969 180.773438 171.667969 C 185.066406 171.667969 188.472656 172.929688 191.003906 175.449219 C 191.941406 176.378906 192.773438 177.558594 193.519531 178.980469 L 223.363281 178.980469 C 221.558594 174.488281 219.328125 170.492188 216.675781 166.988281 Z M 198.390625 214.242188 C 198.390625 225.121094 197.792969 233.644531 196.589844 239.808594 C 195.390625 245.988281 193.527344 250.367188 191.003906 252.945312 C 188.472656 255.527344 185.066406 256.820312 180.773438 256.820312 C 176.472656 256.820312 173.066406 255.496094 170.542969 252.859375 C 168.011719 250.21875 166.144531 245.808594 164.949219 239.625 C 163.746094 233.460938 163.148438 225 163.148438 214.242188 L 132.453125 214.242188 C 132.464844 234.597656 136.597656 250.289062 144.871094 261.320312 C 153.140625 272.355469 165.105469 277.882812 180.773438 277.882812 C 196.429688 277.882812 208.394531 272.355469 216.675781 261.320312 C 224.9375 250.289062 229.070312 234.597656 229.085938 214.242188 L 198.390625 214.242188 " fill-opacity="1" fill-rule="nonzero"/></g><g clip-path="url(#c0c1c64e21)"><path fill="#ffffff" d="M 279.855469 150.066406 L 271.660156 167.996094 L 301.210938 167.996094 L 305.246094 159.0625 Z M 297.648438 271.75 L 297.667969 274.820312 L 326.84375 274.820312 L 326.84375 271.75 Z M 326.84375 227.296875 L 326.84375 220.597656 L 298.609375 220.597656 L 297.851562 227.296875 L 274.367188 227.296875 L 296.230469 178.980469 L 266.640625 178.980469 L 243.484375 229.628906 L 243.484375 248.539062 L 297.480469 248.539062 L 297.578125 261.628906 L 326.84375 261.628906 L 326.84375 248.539062 L 341.246094 248.539062 L 341.246094 227.296875 Z M 301.078125 198.488281 L 299.320312 214.242188 L 326.84375 214.242188 L 326.84375 198.488281 L 301.078125 198.488281 " fill-opacity="1" fill-rule="nonzero"/></g><g clip-path="url(#029b71644d)"><path fill="#ffffff" d="M 44.238281 311.640625 C 44.28125 316.191406 44.722656 321.023438 45.597656 326.136719 L 32.851562 294.359375 L 20.167969 294.359375 L 20.167969 335.292969 L 29.246094 335.292969 L 29.246094 320.292969 C 29.246094 317.023438 29.132812 314.199219 28.898438 311.8125 C 28.675781 309.429688 28.355469 306.679688 27.9375 303.578125 L 40.371094 335.292969 L 53.367188 335.292969 L 53.367188 311.640625 Z M 44.230469 294.359375 L 44.230469 304.410156 L 53.367188 304.410156 L 53.367188 294.359375 L 44.230469 294.359375 " fill-opacity="1" fill-rule="nonzero"/></g><g clip-path="url(#61e53e3dac)"><path fill="#ffffff" d="M 93.804688 298.964844 C 90.390625 295.226562 85.609375 293.355469 79.472656 293.355469 C 75.457031 293.355469 71.988281 294.210938 69.097656 295.921875 C 66.191406 297.640625 63.960938 300.109375 62.410156 303.335938 C 62.234375 303.691406 62.082031 304.046875 61.929688 304.410156 L 72.589844 304.410156 C 72.691406 304.210938 72.804688 304.019531 72.917969 303.835938 C 74.347656 301.574219 76.53125 300.445312 79.472656 300.445312 C 82.421875 300.445312 84.613281 301.566406 86.0625 303.8125 C 87.519531 306.058594 88.238281 309.71875 88.238281 314.796875 C 88.238281 319.875 87.527344 323.554688 86.097656 325.816406 C 84.667969 328.078125 82.464844 329.203125 79.472656 329.203125 C 76.578125 329.203125 74.398438 328.070312 72.945312 325.78125 C 71.496094 323.503906 70.777344 319.832031 70.777344 314.796875 C 70.777344 313.679688 70.8125 312.621094 70.890625 311.640625 L 60.222656 311.640625 C 60.128906 312.65625 60.078125 313.703125 60.078125 314.796875 C 60.078125 319.332031 60.855469 323.199219 62.410156 326.40625 C 63.960938 329.613281 66.191406 332.066406 69.097656 333.757812 C 71.988281 335.449219 75.457031 336.296875 79.472656 336.296875 C 83.496094 336.296875 86.964844 335.441406 89.882812 333.722656 C 92.808594 332.011719 95.042969 329.542969 96.601562 326.320312 C 98.15625 323.085938 98.9375 319.242188 98.9375 314.796875 C 98.9375 307.984375 97.21875 302.710938 93.804688 298.964844 " fill-opacity="1" fill-rule="nonzero"/></g><path fill="#ffffff" d="M 112.117188 330.992188 L 112.117188 335.292969 L 122.3125 335.292969 L 122.3125 330.992188 Z M 100.984375 294.359375 L 100.984375 301.800781 L 112.117188 301.800781 L 112.117188 325.21875 L 122.3125 325.21875 L 122.3125 301.800781 L 132.941406 301.800781 L 133.9375 294.359375 L 100.984375 294.359375 " fill-opacity="1" fill-rule="nonzero"/><path fill="#ffffff" d="M 154.136719 330.992188 L 154.136719 335.292969 L 164.335938 335.292969 L 164.335938 330.992188 Z M 178.75 301.269531 L 179.8125 294.359375 L 154.136719 294.359375 L 154.136719 325.21875 L 164.335938 325.21875 L 164.335938 319.054688 L 176.886719 319.054688 L 176.886719 312.144531 L 164.335938 312.144531 L 164.335938 301.269531 L 178.75 301.269531 " fill-opacity="1" fill-rule="nonzero"/><g clip-path="url(#c7459aa0cd)"><path fill="#ffffff" d="M 211.171875 317.699219 C 210.945312 321.308594 210.269531 324.015625 209.125 325.816406 C 207.695312 328.078125 205.480469 329.203125 202.5 329.203125 C 199.605469 329.203125 197.429688 328.070312 195.972656 325.78125 C 194.523438 323.503906 193.792969 319.832031 193.792969 314.796875 C 193.792969 309.757812 194.511719 306.101562 195.949219 303.835938 C 197.378906 301.574219 199.558594 300.445312 202.5 300.445312 C 205.449219 300.445312 207.644531 301.566406 209.089844 303.8125 C 210.226562 305.5625 210.910156 308.164062 211.152344 311.640625 L 221.824219 311.640625 C 221.375 306.332031 219.699219 302.113281 216.832031 298.964844 C 213.417969 295.226562 208.640625 293.355469 202.5 293.355469 C 198.484375 293.355469 195.015625 294.210938 192.121094 295.921875 C 189.21875 297.640625 186.992188 300.109375 185.4375 303.335938 C 183.882812 306.566406 183.105469 310.382812 183.105469 314.796875 C 183.105469 319.332031 183.882812 323.199219 185.4375 326.40625 C 186.992188 329.613281 189.21875 332.066406 192.121094 333.757812 C 195.015625 335.449219 198.484375 336.296875 202.5 336.296875 C 206.523438 336.296875 209.992188 335.441406 212.914062 333.722656 C 215.835938 332.011719 218.078125 329.542969 219.632812 326.320312 C 220.835938 323.8125 221.574219 320.933594 221.84375 317.699219 L 211.171875 317.699219 " fill-opacity="1" fill-rule="nonzero"/></g><g clip-path="url(#f46637f691)"><path fill="#ffffff" d="M 251.554688 317.699219 L 251.554688 321.289062 C 251.554688 323.9375 251.023438 325.894531 249.96875 327.167969 C 248.910156 328.453125 247.21875 329.09375 244.894531 329.09375 C 242.617188 329.09375 240.953125 328.453125 239.894531 327.167969 C 238.835938 325.894531 238.308594 323.9375 238.308594 321.289062 L 238.308594 317.699219 L 228.109375 317.699219 L 228.109375 321.707031 C 228.109375 326.152344 229.542969 329.699219 232.40625 332.335938 C 235.265625 334.976562 239.425781 336.296875 244.894531 336.296875 C 248.546875 336.296875 251.632812 335.664062 254.164062 334.40625 C 256.6875 333.152344 258.585938 331.417969 259.851562 329.203125 C 261.109375 327.003906 261.742188 324.503906 261.742188 321.707031 L 261.742188 317.699219 Z M 251.554688 294.359375 L 251.554688 311.640625 L 261.742188 311.640625 L 261.742188 294.359375 Z M 228.109375 294.359375 L 228.109375 311.640625 L 238.308594 311.640625 L 238.308594 294.359375 L 228.109375 294.359375 " fill-opacity="1" fill-rule="nonzero"/></g><path fill="#ffffff" d="M 293.953125 294.359375 L 293.953125 310.894531 C 293.953125 315.664062 294.402344 320.742188 295.3125 326.136719 L 282.570312 294.359375 L 269.890625 294.359375 L 269.890625 335.292969 L 278.972656 335.292969 L 278.972656 320.292969 C 278.972656 317.023438 278.847656 314.199219 278.621094 311.8125 C 278.398438 309.429688 278.078125 306.679688 277.660156 303.578125 L 288.859375 332.152344 L 303.089844 332.152344 L 303.089844 294.359375 L 293.953125 294.359375 " fill-opacity="1" fill-rule="nonzero"/><path fill="#ffffff" d="M 335.601562 314.832031 C 335.578125 319.832031 334.703125 323.316406 332.992188 325.277344 C 331.253906 327.273438 328.703125 328.257812 325.347656 328.257812 L 321.980469 328.257812 L 321.980469 301.394531 L 325.214844 301.394531 C 327.417969 301.394531 329.253906 301.757812 330.746094 302.484375 C 332.238281 303.214844 333.425781 304.539062 334.292969 306.464844 C 334.5625 307.054688 334.789062 307.710938 334.96875 308.449219 L 345.632812 308.449219 C 344.792969 303.996094 342.929688 300.742188 340.042969 298.703125 C 335.957031 295.808594 330.539062 294.359375 323.785156 294.359375 L 311.796875 294.359375 L 311.796875 332.152344 L 337.960938 332.152344 C 338.75 331.703125 339.488281 331.199219 340.199219 330.652344 C 344.144531 327.59375 346.136719 322.3125 346.171875 314.832031 L 335.601562 314.832031 " fill-opacity="1" fill-rule="nonzero"/><g clip-path="url(#83448a50f5)"><path fill="#ffffff" d="M 113.46875 248.535156 L 113.46875 274.816406 L 84.289062 274.816406 L 84.097656 248.535156 L 30.101562 248.535156 L 30.101562 229.632812 L 66.480469 150.066406 L 91.867188 159.066406 L 60.988281 227.292969 L 84.480469 227.292969 L 87.699219 198.492188 L 113.46875 198.492188 L 113.46875 227.292969 L 127.867188 227.292969 L 127.867188 248.535156 L 113.46875 248.535156 " fill-opacity="1" fill-rule="nonzero"/></g><g clip-path="url(#1af04d7069)"><path fill="#ffffff" d="M 179.210938 175.628906 C 176.679688 178.269531 174.820312 182.652344 173.621094 188.769531 C 172.417969 194.890625 171.820312 203.351562 171.820312 214.152344 C 171.820312 224.953125 172.417969 233.445312 173.621094 239.625 C 174.820312 245.804688 176.679688 250.21875 179.210938 252.855469 C 181.734375 255.496094 185.144531 256.816406 189.4375 256.816406 C 193.730469 256.816406 197.144531 255.527344 199.671875 252.945312 C 202.195312 250.367188 204.058594 245.988281 205.261719 239.804688 C 206.457031 233.625 207.058594 225.074219 207.058594 214.152344 C 207.058594 203.234375 206.457031 194.683594 205.261719 188.5 C 204.058594 182.320312 202.195312 177.972656 199.671875 175.449219 C 197.144531 172.929688 193.730469 171.667969 189.4375 171.667969 C 185.144531 171.667969 181.734375 172.992188 179.210938 175.628906 Z M 225.34375 166.988281 C 233.617188 177.910156 237.75 193.628906 237.75 214.152344 C 237.75 234.558594 233.617188 250.273438 225.34375 261.316406 C 217.066406 272.359375 205.097656 277.875 189.4375 277.875 C 173.777344 277.875 161.808594 272.359375 153.535156 261.316406 C 145.261719 250.273438 141.128906 234.558594 141.128906 214.152344 C 141.128906 193.628906 145.261719 177.910156 153.535156 166.988281 C 161.808594 156.070312 173.777344 150.609375 189.4375 150.609375 C 205.097656 150.609375 217.066406 156.070312 225.34375 166.988281 " fill-opacity="1" fill-rule="nonzero"/></g><g clip-path="url(#2a62d304fc)"><path fill="#ffffff" d="M 335.515625 248.535156 L 335.515625 274.816406 L 306.335938 274.816406 L 306.148438 248.535156 L 252.152344 248.535156 L 252.152344 229.632812 L 288.53125 150.066406 L 313.917969 159.066406 L 283.035156 227.292969 L 306.527344 227.292969 L 309.746094 198.492188 L 335.515625 198.492188 L 335.515625 227.292969 L 349.914062 227.292969 L 349.914062 248.535156 L 335.515625 248.535156 " fill-opacity="1" fill-rule="nonzero"/></g><g clip-path="url(#4dc7db87f7)"><path fill="#ffffff" d="M 49.042969 335.292969 L 36.609375 303.574219 C 37.023438 306.683594 37.34375 309.433594 37.574219 311.8125 C 37.800781 314.195312 37.914062 317.019531 37.914062 320.289062 L 37.914062 335.292969 L 28.839844 335.292969 L 28.839844 294.359375 L 41.519531 294.359375 L 54.265625 326.136719 C 53.351562 320.742188 52.898438 315.664062 52.898438 310.898438 L 52.898438 294.359375 L 62.035156 294.359375 L 62.035156 335.292969 L 49.042969 335.292969 " fill-opacity="1" fill-rule="nonzero"/></g><g clip-path="url(#7af2530226)"><path fill="#ffffff" d="M 81.585938 303.839844 C 80.15625 306.105469 79.445312 309.753906 79.445312 314.796875 C 79.445312 319.835938 80.167969 323.5 81.617188 325.78125 C 83.070312 328.066406 85.242188 329.210938 88.144531 329.210938 C 91.128906 329.210938 93.335938 328.078125 94.765625 325.8125 C 96.195312 323.546875 96.914062 319.875 96.914062 314.796875 C 96.914062 309.71875 96.1875 306.054688 94.734375 303.808594 C 93.285156 301.566406 91.089844 300.441406 88.144531 300.441406 C 85.203125 300.441406 83.015625 301.574219 81.585938 303.839844 Z M 102.472656 298.96875 C 105.894531 302.707031 107.605469 307.984375 107.605469 314.796875 C 107.605469 319.246094 106.828125 323.085938 105.273438 326.3125 C 103.71875 329.542969 101.480469 332.011719 98.558594 333.726562 C 95.636719 335.441406 92.164062 336.296875 88.144531 336.296875 C 84.125 336.296875 80.664062 335.449219 77.761719 333.757812 C 74.863281 332.066406 72.636719 329.613281 71.082031 326.402344 C 69.527344 323.191406 68.75 319.328125 68.75 314.796875 C 68.75 310.386719 69.527344 306.566406 71.082031 303.335938 C 72.636719 300.109375 74.863281 297.636719 77.761719 295.925781 C 80.664062 294.210938 84.125 293.355469 88.144531 293.355469 C 94.277344 293.355469 99.054688 295.226562 102.472656 298.96875 " fill-opacity="1" fill-rule="nonzero"/></g><g clip-path="url(#66e33d1e1d)"><path fill="#ffffff" d="M 130.976562 301.800781 L 130.976562 335.292969 L 120.78125 335.292969 L 120.78125 301.800781 L 109.65625 301.800781 L 109.65625 294.359375 L 142.605469 294.359375 L 141.609375 301.800781 L 130.976562 301.800781 " fill-opacity="1" fill-rule="nonzero"/></g><g clip-path="url(#80f06025af)"><path fill="#ffffff" d="M 173.003906 301.269531 L 173.003906 312.136719 L 185.558594 312.136719 L 185.558594 319.050781 L 173.003906 319.050781 L 173.003906 335.292969 L 162.804688 335.292969 L 162.804688 294.359375 L 188.480469 294.359375 L 187.425781 301.269531 L 173.003906 301.269531 " fill-opacity="1" fill-rule="nonzero"/></g><g clip-path="url(#f63a3453ca)"><path fill="#ffffff" d="M 204.613281 303.839844 C 203.183594 306.105469 202.46875 309.753906 202.46875 314.796875 C 202.46875 319.835938 203.191406 323.5 204.644531 325.78125 C 206.097656 328.066406 208.269531 329.210938 211.171875 329.210938 C 214.15625 329.210938 216.363281 328.078125 217.792969 325.8125 C 219.222656 323.546875 219.941406 319.875 219.941406 314.796875 C 219.941406 309.71875 219.214844 306.054688 217.761719 303.808594 C 216.3125 301.566406 214.113281 300.441406 211.171875 300.441406 C 208.230469 300.441406 206.042969 301.574219 204.613281 303.839844 Z M 225.5 298.96875 C 228.921875 302.707031 230.632812 307.984375 230.632812 314.796875 C 230.632812 319.246094 229.855469 323.085938 228.300781 326.3125 C 226.75 329.542969 224.507812 332.011719 221.582031 333.726562 C 218.664062 335.441406 215.191406 336.296875 211.171875 336.296875 C 207.152344 336.296875 203.691406 335.449219 200.789062 333.757812 C 197.890625 332.066406 195.664062 329.613281 194.109375 326.402344 C 192.554688 323.191406 191.777344 319.328125 191.777344 314.796875 C 191.777344 310.386719 192.554688 306.566406 194.109375 303.335938 C 195.664062 300.109375 197.890625 297.636719 200.789062 295.925781 C 203.691406 294.210938 207.152344 293.355469 211.171875 293.355469 C 217.304688 293.355469 222.082031 295.226562 225.5 298.96875 " fill-opacity="1" fill-rule="nonzero"/></g><g clip-path="url(#79af44d489)"><path fill="#ffffff" d="M 268.519531 329.210938 C 267.257812 331.414062 265.359375 333.148438 262.832031 334.40625 C 260.304688 335.664062 257.21875 336.296875 253.570312 336.296875 C 248.101562 336.296875 243.933594 334.976562 241.074219 332.339844 C 238.214844 329.703125 236.785156 326.15625 236.785156 321.707031 L 236.785156 294.359375 L 246.980469 294.359375 L 246.980469 321.292969 C 246.980469 323.929688 247.507812 325.890625 248.566406 327.171875 C 249.621094 328.453125 251.289062 329.089844 253.570312 329.089844 C 255.890625 329.089844 257.582031 328.453125 258.636719 327.171875 C 259.691406 325.890625 260.222656 323.929688 260.222656 321.292969 L 260.222656 294.359375 L 270.417969 294.359375 L 270.417969 321.707031 C 270.417969 324.503906 269.785156 327.003906 268.519531 329.210938 " fill-opacity="1" fill-rule="nonzero"/></g><g clip-path="url(#f1b2440319)"><path fill="#ffffff" d="M 298.765625 335.292969 L 286.328125 303.574219 C 286.746094 306.683594 287.066406 309.433594 287.292969 311.8125 C 287.523438 314.195312 287.636719 317.019531 287.636719 320.289062 L 287.636719 335.292969 L 278.5625 335.292969 L 278.5625 294.359375 L 291.242188 294.359375 L 303.984375 326.136719 C 303.074219 320.742188 302.621094 315.664062 302.621094 310.898438 L 302.621094 294.359375 L 311.757812 294.359375 L 311.757812 335.292969 L 298.765625 335.292969 " fill-opacity="1" fill-rule="nonzero"/></g><g clip-path="url(#94144caa44)"><path fill="#ffffff" d="M 330.65625 328.265625 L 334.011719 328.265625 C 337.367188 328.265625 339.917969 327.269531 341.660156 325.28125 C 343.402344 323.292969 344.269531 319.738281 344.269531 314.621094 C 344.269531 311.113281 343.835938 308.398438 342.964844 306.46875 C 342.09375 304.539062 340.914062 303.210938 339.421875 302.480469 C 337.929688 301.753906 336.085938 301.386719 333.886719 301.386719 L 330.65625 301.386719 Z M 348.714844 298.703125 C 352.796875 301.59375 354.839844 306.902344 354.839844 314.621094 C 354.839844 322.222656 352.851562 327.566406 348.871094 330.65625 C 344.890625 333.746094 339.730469 335.292969 333.390625 335.292969 L 320.460938 335.292969 L 320.460938 294.359375 L 332.457031 294.359375 C 339.214844 294.359375 344.632812 295.808594 348.714844 298.703125 " fill-opacity="1" fill-rule="nonzero"/></g><path fill="#fbc02c" d="M 180.320312 135.371094 C 179.855469 134.84375 179.332031 135.25 179.332031 135.25 C 179.15625 135.25 179.039062 135.3125 178.980469 135.371094 L 158.320312 135.371094 C 157.679688 135.3125 156.808594 135.601562 156.984375 137.585938 C 156.984375 137.878906 156.984375 138.113281 157.039062 138.40625 C 157.15625 139.222656 157.445312 139.980469 157.621094 140.796875 C 158.089844 141.4375 158.4375 142.082031 158.785156 142.664062 C 159.773438 143.421875 161 144.007812 161.578125 144.242188 C 161.988281 144.472656 162.683594 145 163.09375 144.589844 C 163.152344 144.472656 163.152344 144.824219 163.09375 144.824219 C 164.199219 145.058594 164.839844 145.816406 165.769531 145.640625 C 166.175781 145.582031 166.527344 145.292969 166.878906 145 C 167.632812 145.40625 168.5625 145.523438 169.4375 145.292969 C 169.789062 145.933594 170.019531 145.40625 170.542969 145.640625 C 171.707031 145.347656 172.636719 145.117188 173.511719 144.941406 C 174.441406 144.707031 175.375 144.53125 176.535156 144.066406 C 176.769531 143.890625 176.710938 143.480469 176.945312 143.304688 C 177.644531 143.128906 178.226562 142.605469 178.632812 141.964844 C 178.980469 141.4375 179.214844 140.796875 179.332031 140.273438 C 180.203125 139.222656 179.972656 137.878906 180.320312 137.003906 C 180.671875 136.128906 180.320312 135.425781 180.320312 135.425781 Z M 284.847656 66.386719 C 284.324219 65.800781 283.683594 65.394531 282.988281 65.101562 C 283.507812 64.871094 283.976562 64.519531 284.382812 64.109375 C 286.535156 62.066406 286.59375 58.683594 284.558594 56.523438 C 282.519531 54.363281 279.144531 54.304688 276.992188 56.347656 C 275.421875 57.867188 274.953125 60.140625 275.652344 62.128906 C 273.617188 59.964844 270.238281 59.910156 268.085938 61.953125 C 265.933594 63.996094 265.875 67.378906 267.910156 69.539062 C 268.609375 70.296875 269.484375 70.761719 270.414062 70.996094 C 268.785156 73.15625 269.191406 76.25 271.347656 77.941406 C 273.5 79.636719 276.640625 79.226562 278.332031 77.066406 C 278.738281 76.484375 279.085938 75.898438 279.203125 75.257812 C 279.609375 75.375 280.019531 75.492188 280.484375 75.550781 C 281.183594 75.605469 283.976562 79.226562 284.613281 79.050781 C 285.140625 78.875 283.570312 74.90625 284.03125 74.617188 C 284.265625 74.441406 284.441406 74.324219 284.613281 74.089844 C 286.769531 71.929688 286.886719 68.546875 284.847656 66.386719 Z M 250.160156 78.585938 C 250.160156 84.652344 245.273438 89.558594 239.21875 89.558594 C 237.53125 89.558594 235.902344 89.148438 234.445312 88.445312 L 224.203125 88.445312 L 224.203125 91.1875 L 184.21875 91.1875 L 184.21875 88.445312 L 132.828125 88.445312 L 132.828125 85.472656 C 131.199219 86.402344 129.339844 86.929688 127.359375 86.929688 C 121.304688 86.929688 116.414062 82.027344 116.414062 75.957031 C 116.414062 69.886719 121.304688 64.984375 127.359375 64.984375 C 127.882812 64.984375 128.40625 65.046875 128.929688 65.101562 C 128.871094 64.578125 128.8125 63.996094 128.8125 63.46875 C 128.8125 57.398438 133.703125 52.496094 139.753906 52.496094 C 141.152344 52.496094 142.433594 52.730469 143.652344 53.199219 C 144.46875 48.644531 148.425781 45.144531 153.199219 45.144531 C 156.402344 45.144531 159.191406 46.660156 160.9375 49.054688 C 162.917969 46.308594 166.121094 44.558594 169.789062 44.558594 C 171.765625 44.558594 173.570312 45.082031 175.199219 46.019531 C 175.082031 44.734375 175.375 43.332031 176.246094 42.226562 C 178.050781 39.890625 181.425781 39.421875 183.753906 41.175781 C 184.21875 41.523438 184.628906 41.933594 184.917969 42.402344 C 185.09375 41.699219 185.382812 41 185.847656 40.359375 C 187.652344 38.023438 191.03125 37.554688 193.359375 39.308594 C 194.289062 40.007812 194.871094 40.941406 195.21875 41.933594 C 196.269531 41.582031 197.375 41.410156 198.476562 41.410156 C 202.089844 41.410156 205.289062 43.160156 207.328125 45.902344 C 209.304688 43.160156 212.503906 41.410156 216.171875 41.410156 C 222.109375 41.410156 226.941406 46.195312 227.113281 52.144531 C 228.511719 51.503906 230.082031 51.15625 231.710938 51.15625 C 237.761719 51.15625 242.652344 56.054688 242.652344 62.128906 C 242.652344 64.167969 242.070312 66.09375 241.082031 67.726562 C 246.261719 68.664062 250.160156 73.15625 250.160156 78.585938 " fill-opacity="1" fill-rule="nonzero"/><path fill="#e82c3a" d="M 257.261719 80.683594 L 257.261719 80.566406 L 257.378906 80.683594 C 257.378906 80.683594 257.320312 80.683594 257.261719 80.683594 Z M 256.621094 79.867188 C 256.621094 79.808594 256.621094 79.808594 256.621094 79.75 L 256.738281 79.867188 Z M 180.4375 136.945312 C 180.089844 137.820312 180.320312 139.164062 179.445312 140.210938 C 179.332031 140.738281 179.097656 141.324219 178.75 141.90625 C 178.34375 142.546875 177.761719 143.128906 177.0625 143.25 C 176.828125 143.480469 176.886719 143.832031 176.652344 144.007812 C 175.488281 144.472656 174.5 144.648438 173.628906 144.882812 C 172.695312 145.117188 171.824219 145.292969 170.660156 145.582031 C 170.136719 145.347656 169.902344 145.875 169.554688 145.234375 C 168.679688 145.464844 167.75 145.347656 166.992188 144.941406 C 166.644531 145.234375 166.296875 145.464844 165.886719 145.582031 C 164.898438 145.757812 164.316406 145 163.210938 144.765625 C 163.265625 144.765625 163.265625 144.472656 163.210938 144.53125 C 162.804688 144.941406 162.160156 144.417969 161.695312 144.183594 C 161.058594 143.949219 159.894531 143.367188 158.902344 142.605469 C 158.609375 141.964844 158.203125 141.378906 157.738281 140.738281 C 157.566406 139.921875 157.273438 139.164062 157.15625 138.34375 C 157.097656 138.054688 157.097656 137.820312 157.097656 137.53125 C 156.984375 135.542969 157.796875 135.25 158.4375 135.3125 L 179.097656 135.3125 C 179.15625 135.25 179.214844 135.195312 179.445312 135.195312 C 179.445312 135.195312 179.972656 134.785156 180.4375 135.3125 L 180.554688 135.3125 C 180.4375 135.371094 180.785156 136.070312 180.4375 136.945312 Z M 112.460938 79.867188 C 112.515625 79.867188 112.515625 79.867188 112.460938 79.867188 Z M 112.167969 80.21875 C 112.226562 80.21875 112.167969 80.21875 112.167969 80.21875 Z M 257.378906 78.699219 C 253.128906 78.410156 249.230469 78.175781 244.804688 78.117188 C 240.617188 77.941406 241.605469 78.699219 237.414062 78.585938 C 233.632812 78.292969 231.304688 77.765625 226.941406 77.59375 C 222.167969 78.058594 213.667969 77.824219 208.898438 77.359375 C 206.394531 78.058594 203.949219 78 197.894531 77.765625 C 194.695312 78.117188 193.707031 78.816406 189.050781 78.933594 C 185.328125 79.109375 179.972656 78.699219 173.453125 78.761719 C 171.765625 79.167969 173.859375 79.34375 171.996094 79.460938 C 169.902344 79.402344 168.214844 79.460938 167.109375 79.578125 C 164.316406 79.285156 161.519531 79.050781 158.960938 78.761719 C 144.992188 78.699219 140.917969 77.359375 129.453125 76.949219 C 127.183594 77.359375 121.363281 77.242188 116.125 77.125 C 114.613281 77.300781 113.390625 77.472656 112.167969 77.648438 L 109.199219 78.175781 L 109.898438 80.277344 C 110.714844 82.667969 111.527344 84.828125 112.339844 88.738281 C 112.921875 93.757812 113.273438 97.785156 114.261719 104.148438 C 115.542969 107.238281 116.765625 113.308594 118.046875 118.792969 C 118.6875 122.472656 118.222656 122.238281 118.917969 125.914062 C 119.386719 129.066406 119.851562 132.683594 120.316406 134.320312 C 120.082031 136.128906 120.609375 138.054688 121.191406 140.273438 C 120.839844 140.855469 121.421875 144.707031 121.652344 147.335938 C 122.355469 150.078125 123.050781 155.855469 123.808594 157.019531 C 124.214844 161.515625 125.144531 167.816406 125.671875 172.488281 L 125.785156 173.480469 L 126.890625 173.539062 C 127.765625 173.597656 128.523438 173.652344 129.21875 173.652344 C 132.886719 173.480469 134.402344 172.894531 138.007812 172.722656 C 142.957031 172.953125 142.78125 172.429688 146.5625 172.488281 C 148.367188 172.777344 152.152344 172.777344 153.664062 173.070312 C 158.609375 173.246094 156.109375 172.253906 161.058594 172.429688 C 165.421875 172.546875 169.085938 172.722656 173.105469 172.894531 C 179.445312 172.136719 186.199219 172.3125 197.3125 172.488281 C 198.363281 172.429688 199.410156 172.3125 200.515625 172.253906 L 242.886719 172.253906 L 243.121094 170.796875 C 243.121094 171.785156 243.058594 172.722656 243.351562 172.777344 C 243.875 170.445312 244.691406 169.394531 244.921875 166.242188 C 245.679688 161.804688 246.378906 158.949219 247.019531 155.914062 C 246.613281 154.863281 247.890625 148.734375 248.183594 145.699219 C 248.707031 142.488281 248.820312 145.40625 249.402344 141.4375 C 249.871094 138.582031 249.347656 138.636719 250.042969 134.960938 C 250.917969 131.167969 251.964844 129.652344 252.023438 125.742188 C 253.476562 119.378906 253.945312 114.070312 255.515625 106.65625 C 255.980469 101.109375 255.339844 98.953125 256.214844 92.300781 C 257.085938 87.570312 257.960938 83.722656 258.773438 80.101562 L 259.066406 78.816406 L 257.378906 78.699219 " fill-opacity="1" fill-rule="nonzero"/><path fill="#ffffff" d="M 201.332031 121.421875 C 200.574219 124.867188 197.546875 127.375 193.996094 127.375 L 185.5 127.375 C 181.949219 127.375 178.925781 124.867188 178.167969 121.421875 L 175.546875 109.109375 L 203.835938 109.109375 Z M 160.707031 121.421875 C 159.949219 124.867188 156.925781 127.375 153.371094 127.375 L 144.878906 127.375 C 141.324219 127.375 138.300781 124.867188 137.542969 121.421875 L 134.925781 109.109375 L 163.210938 109.109375 Z M 211.691406 106.890625 C 211.691406 106.070312 211.050781 105.429688 210.238281 105.429688 L 128.40625 105.429688 C 127.765625 105.429688 127.242188 105.953125 127.242188 106.597656 L 127.242188 107.941406 C 127.242188 108.582031 127.765625 109.109375 128.40625 109.109375 L 131.199219 109.109375 L 133.933594 122.179688 C 135.039062 127.316406 139.640625 131.050781 144.878906 131.050781 L 153.371094 131.050781 C 158.671875 131.050781 163.210938 127.316406 164.316406 122.179688 L 167.050781 109.109375 L 171.824219 109.109375 L 174.558594 122.179688 C 175.664062 127.375 180.203125 131.050781 185.5 131.050781 L 193.996094 131.050781 C 199.292969 131.050781 203.835938 127.316406 204.9375 122.179688 L 207.675781 109.109375 L 210.175781 109.109375 C 210.992188 109.109375 211.632812 108.464844 211.632812 107.648438 L 211.632812 106.890625 L 211.691406 106.890625 " fill-opacity="1" fill-rule="nonzero"/><g clip-path="url(#0db5dc13c5)"><path fill="#3061b0" d="M 228.859375 81.96875 C 228.453125 84.246094 228.042969 86.289062 227.519531 88.097656 C 227.054688 91.65625 226.472656 95.625 226.125 97.785156 C 225.890625 99.304688 225.25 101.8125 225.484375 102.628906 C 225.542969 102.804688 225.25 103.035156 225.25 102.921875 C 224.726562 106.65625 223.738281 109.046875 223.449219 112.140625 C 223.332031 113.425781 223.332031 114.535156 223.386719 115.699219 C 222.574219 118.386719 221.933594 121.480469 221.527344 124.574219 C 220.828125 125.566406 221.003906 126.558594 220.476562 128.25 C 219.140625 136.363281 218.09375 140.914062 216.171875 148.675781 C 215.996094 149.667969 216.171875 150.132812 215.996094 151.128906 C 214.71875 155.214844 214.136719 160.699219 213.785156 164.199219 C 213.726562 165.074219 213.554688 165.835938 213.496094 166.652344 C 213.4375 167.46875 213.496094 168.054688 213.4375 168.753906 C 213.320312 169.976562 212.972656 171.203125 212.972656 172.253906 L 214.136719 172.253906 C 214.25 171.847656 214.425781 171.378906 214.542969 170.734375 C 214.601562 168.226562 215.007812 167.175781 215.648438 163.5 C 215.9375 159.648438 216.40625 156.789062 217.335938 153.171875 C 217.335938 152.351562 217.566406 152.234375 217.335938 151.417969 C 217.800781 149.785156 218.730469 147.042969 218.675781 145.292969 C 219.3125 144.707031 219.488281 142.140625 220.011719 140.914062 C 221.410156 134.667969 222.339844 128.890625 223.855469 122.878906 C 225.019531 116.867188 225.890625 112.78125 226.007812 108.40625 C 227.054688 105.722656 226.878906 104.027344 227.929688 100.234375 C 228.335938 96.441406 228.976562 92.183594 229.035156 89.4375 C 229.617188 87.863281 229.441406 86.988281 229.90625 85.003906 C 230.488281 82.667969 231.128906 80.21875 231.652344 77.824219 C 231.128906 77.765625 230.605469 77.710938 230.023438 77.648438 C 229.617188 79.167969 229.207031 80.566406 228.859375 81.96875 Z M 288.746094 86.929688 C 289.097656 84.828125 288.6875 82.378906 287.757812 80.21875 C 286.828125 78.058594 285.488281 76.25 284.382812 74.964844 C 284.265625 74.847656 284.152344 74.675781 284.03125 74.554688 C 283.570312 74.90625 283.042969 75.140625 282.519531 75.316406 C 281.878906 75.492188 281.183594 75.605469 280.484375 75.550781 C 280.832031 76.074219 281.183594 76.71875 281.648438 77.535156 C 283.976562 80.101562 285.023438 82.609375 285.023438 85.878906 C 285.488281 86.519531 285.082031 86.695312 285.898438 87.339844 C 285.664062 88.914062 284.964844 91.425781 285.664062 92.941406 C 284.5 93.523438 284.90625 95.742188 284.152344 96.734375 C 283.449219 99.417969 282.578125 101.8125 281.414062 104.089844 C 280.25 106.304688 278.679688 108.347656 276.585938 109.925781 C 274.78125 111.734375 273.035156 112.902344 271.402344 114.125 C 269.773438 115.292969 268.320312 116.460938 266.863281 117.863281 C 266.164062 117.804688 265.582031 117.863281 265.0625 118.035156 C 264.535156 118.152344 264.011719 118.328125 263.488281 118.503906 C 262.964844 118.679688 262.441406 118.96875 261.800781 119.085938 C 261.160156 119.261719 260.40625 119.378906 259.53125 119.4375 C 256.445312 120.953125 252.546875 122.003906 250.21875 123.113281 C 248.648438 122.703125 244.285156 123.578125 242.363281 123.40625 C 241.605469 123.347656 241.023438 122.996094 239.046875 122.878906 C 238.753906 122.824219 237.007812 122.703125 236.71875 122.648438 C 236.71875 122.648438 234.851562 122.878906 234.15625 127.082031 L 239.917969 127.082031 C 241.023438 127.023438 242.070312 126.964844 243.058594 126.964844 C 244.050781 126.964844 248.707031 127.023438 249.636719 127.082031 C 251.324219 126.671875 253.128906 126.265625 254.757812 125.796875 C 255.574219 125.566406 256.332031 125.390625 257.027344 125.214844 C 257.726562 124.980469 258.308594 124.804688 258.832031 124.691406 C 260.230469 124.339844 262.789062 123.988281 263.199219 122.878906 C 263.316406 122.648438 263.722656 123.054688 263.605469 123.113281 C 264.417969 122.761719 265.234375 122.472656 265.992188 122.238281 C 266.746094 122.003906 267.445312 121.773438 268.144531 121.597656 C 268.492188 121.480469 268.84375 121.363281 269.191406 121.304688 C 269.542969 121.1875 269.832031 121.011719 270.183594 120.894531 C 270.820312 120.605469 271.460938 120.253906 272.042969 119.730469 C 272.972656 118.855469 273.675781 117.917969 274.199219 116.8125 C 276.757812 115.875 279.261719 113.949219 280.949219 111.441406 C 281.703125 111.382812 282.113281 111.03125 282.460938 110.566406 C 282.8125 110.097656 283.101562 109.457031 283.800781 108.875 C 284.789062 107.066406 285.605469 105.488281 286.1875 103.914062 C 286.535156 103.152344 286.769531 102.335938 287.0625 101.636719 C 287.292969 100.878906 287.523438 100.117188 287.757812 99.417969 C 288.632812 96.441406 289.328125 93.40625 289.621094 89.382812 C 289.503906 88.269531 288.921875 87.863281 288.746094 86.929688 Z M 178.226562 121.421875 C 178.980469 124.867188 182.007812 127.375 185.558594 127.375 L 194.054688 127.375 C 197.605469 127.375 200.632812 124.867188 201.386719 121.421875 L 204.007812 109.109375 L 175.722656 109.109375 Z M 141.851562 174.355469 C 142.140625 174.238281 142.375 174.121094 142.664062 173.945312 L 150 172.3125 C 150.289062 168.636719 149.007812 167.46875 149.007812 167.46875 C 145.980469 167.640625 143.769531 169.746094 141.09375 170.503906 C 140.046875 171.378906 138.941406 172.019531 137.832031 172.429688 C 136.320312 174.0625 134.632812 175.8125 133.703125 176.6875 C 133.003906 177.332031 131.546875 177.914062 131.722656 178.964844 C 131.78125 179.199219 131.316406 178.851562 131.375 178.789062 C 129.746094 180.425781 127.882812 180.480469 126.777344 182.058594 C 126.308594 182.699219 126.078125 183.519531 125.902344 184.449219 C 124.15625 184.917969 122.585938 185.96875 121.246094 187.3125 C 120.027344 186.785156 120.082031 187.835938 118.976562 188.070312 C 115.71875 190.988281 113.449219 192.328125 109.957031 194.023438 C 107.628906 192.328125 99.886719 186.785156 98.433594 186.144531 C 96.6875 185.386719 96.164062 187.078125 96.164062 187.078125 C 96.164062 187.078125 97.09375 190.054688 99.074219 191.921875 L 99.828125 192.328125 C 100.703125 192.972656 100.875 193.789062 102.039062 195.246094 C 103.847656 196.53125 104.949219 197.757812 105.765625 199.566406 L 106.40625 200.96875 L 108.210938 200.03125 C 108.386719 199.917969 108.617188 199.859375 108.851562 199.742188 C 109.023438 199.15625 109.375 199.449219 109.257812 198.574219 C 110.304688 198.28125 112.167969 197.875 112.515625 196.648438 C 113.566406 197.351562 114.378906 195.949219 115.371094 195.949219 C 118.742188 194.023438 121.363281 191.6875 124.796875 190.054688 C 127.824219 187.953125 129.921875 186.554688 131.140625 183.808594 C 133.238281 183.808594 133.351562 182.292969 135.621094 181.476562 C 137.019531 179.550781 138.941406 177.683594 139.640625 175.988281 C 140.804688 175.8125 140.742188 174.9375 141.851562 174.355469 Z M 190.679688 167.46875 C 187.652344 167.640625 185.441406 169.746094 182.765625 170.503906 C 181.71875 171.378906 180.609375 172.019531 179.507812 172.429688 C 177.992188 174.0625 176.304688 175.8125 175.375 176.6875 C 174.675781 177.332031 173.21875 177.914062 173.394531 178.964844 C 173.453125 179.199219 172.988281 178.851562 173.046875 178.789062 C 171.414062 180.425781 169.554688 180.480469 168.449219 182.058594 C 167.980469 182.699219 167.75 183.519531 167.574219 184.449219 C 165.828125 184.917969 164.257812 185.96875 162.917969 187.3125 C 161.695312 186.785156 161.753906 187.835938 160.648438 188.070312 C 157.390625 190.988281 155.117188 192.328125 151.625 194.023438 C 149.300781 192.328125 141.558594 186.785156 140.105469 186.144531 C 138.359375 185.386719 137.832031 187.078125 137.832031 187.078125 C 137.832031 187.078125 138.765625 190.054688 140.742188 191.921875 L 141.5 192.328125 C 142.375 192.972656 142.550781 193.789062 143.714844 195.246094 C 145.515625 196.53125 146.621094 197.757812 147.4375 199.566406 L 148.078125 200.96875 L 149.882812 200.03125 C 150.054688 199.917969 150.289062 199.859375 150.523438 199.742188 C 150.695312 199.15625 151.042969 199.449219 150.929688 198.574219 C 151.976562 198.28125 153.839844 197.875 154.1875 196.648438 C 155.238281 197.351562 156.050781 195.949219 157.039062 195.949219 C 160.417969 194.023438 163.035156 191.6875 166.46875 190.054688 C 169.496094 187.953125 171.589844 186.554688 172.8125 183.808594 C 174.90625 183.808594 175.023438 182.292969 177.292969 181.476562 C 178.691406 179.550781 180.609375 177.683594 181.308594 175.988281 C 182.472656 175.871094 182.417969 174.996094 183.519531 174.414062 C 183.8125 174.296875 184.046875 174.179688 184.335938 174.003906 L 191.667969 172.371094 C 192.019531 168.636719 190.679688 167.46875 190.679688 167.46875 Z M 97.851562 167.234375 C 97.09375 167.992188 96.511719 168.753906 96.046875 169.511719 L 95.582031 170.269531 L 95 172.195312 L 78.644531 172.195312 C 78.644531 172.195312 77.015625 170.972656 79.457031 170.503906 C 79.34375 169.21875 80.390625 169.976562 80.914062 169.804688 C 81.203125 169.21875 81.90625 169.394531 82.367188 169.101562 C 83.007812 169.160156 83.882812 168.929688 84.171875 169.453125 C 85.046875 168.695312 85.980469 169.042969 86.96875 168.753906 C 87.433594 168.578125 87.839844 168.226562 88.421875 168.054688 C 88.945312 167.878906 89.472656 167.878906 90.054688 167.703125 C 91.042969 167.410156 91.507812 167.058594 92.789062 166.828125 C 93.371094 165.890625 94.066406 165.074219 94.882812 164.492188 C 95.230469 163.910156 95.636719 163.265625 95.988281 162.683594 C 99.828125 158.597656 101.867188 156.144531 104.601562 151.183594 C 105.648438 150.425781 105.300781 149.433594 106.640625 149.378906 C 107.570312 147.449219 108.851562 145.699219 110.421875 144.417969 C 110.363281 143.480469 110.363281 142.546875 110.59375 141.730469 C 111.238281 139.628906 113.097656 138.753906 114.207031 136.363281 C 114.148438 136.417969 114.730469 136.539062 114.613281 136.363281 C 114.085938 135.425781 115.425781 134.144531 115.894531 133.210938 C 116.589844 131.925781 117.753906 129.414062 118.804688 127.140625 C 118.863281 127.082031 118.917969 127.023438 118.976562 126.964844 C 119.152344 128.074219 120.027344 128.773438 120.199219 129.824219 C 120.433594 131.402344 119.96875 133.269531 120.199219 134.144531 C 119.851562 135.078125 119.445312 136.011719 119.152344 136.945312 C 117.117188 138.8125 117.40625 140.332031 115.371094 141.324219 C 114.960938 144.589844 113.273438 146.867188 110.886719 150.367188 C 107.917969 153.519531 106 157.082031 103.203125 160.464844 C 102.214844 160.929688 101.808594 162.683594 100.585938 162.507812 C 100.585938 163.847656 98.839844 165.132812 97.910156 165.890625 C 98.257812 166.765625 97.851562 166.59375 97.851562 167.234375 " fill-opacity="1" fill-rule="nonzero"/></g><path fill="#ef8525" d="M 174.5 141.4375 C 174.441406 141.554688 174.441406 141.207031 174.5 141.207031 C 173.394531 140.972656 172.753906 140.210938 171.824219 140.386719 C 171.414062 140.449219 171.066406 140.738281 170.71875 141.03125 C 169.960938 140.621094 169.03125 140.503906 168.15625 140.738281 C 167.808594 140.097656 167.574219 140.621094 167.050781 140.386719 C 165.886719 140.679688 164.957031 140.914062 164.082031 141.089844 C 163.152344 141.324219 162.222656 141.5 161.058594 141.964844 C 160.824219 142.140625 160.882812 142.546875 160.648438 142.722656 C 160.300781 142.78125 160.007812 142.957031 159.71875 143.191406 C 160.476562 143.65625 161.230469 144.007812 161.695312 144.242188 C 162.101562 144.472656 162.804688 145 163.210938 144.589844 C 163.265625 144.472656 163.265625 144.824219 163.210938 144.824219 C 164.316406 145.058594 164.957031 145.816406 165.886719 145.640625 C 166.296875 145.582031 166.644531 145.292969 166.992188 145 C 167.75 145.40625 168.679688 145.523438 169.554688 145.292969 C 169.902344 145.933594 170.136719 145.40625 170.660156 145.640625 C 171.824219 145.347656 172.753906 145.117188 173.628906 144.941406 C 174.558594 144.707031 175.488281 144.53125 176.652344 144.066406 C 176.886719 143.890625 176.828125 143.480469 177.0625 143.304688 C 177.410156 143.25 177.699219 143.074219 177.992188 142.839844 C 177.234375 142.375 176.480469 142.023438 176.015625 141.789062 C 175.546875 141.554688 174.90625 141.03125 174.5 141.4375 Z M 159.078125 63.757812 C 158.320312 63.644531 157.566406 63.703125 156.863281 63.933594 C 157.097656 63.410156 157.273438 62.882812 157.390625 62.300781 C 157.796875 59.382812 155.699219 56.640625 152.789062 56.289062 C 150.113281 55.941406 147.613281 57.632812 146.914062 60.257812 C 146.449219 60.023438 145.925781 59.847656 145.398438 59.792969 C 142.664062 59.441406 140.160156 61.367188 139.8125 64.109375 C 139.464844 66.675781 141.152344 69.070312 143.652344 69.65625 C 143.480469 70.0625 143.363281 70.472656 143.304688 70.882812 C 142.898438 73.800781 144.992188 76.542969 147.902344 76.890625 C 150.8125 77.300781 153.546875 75.199219 153.898438 72.28125 C 153.898438 72.222656 153.898438 72.105469 153.898438 72.046875 C 154.710938 73.332031 156.050781 74.265625 157.679688 74.441406 C 160.589844 74.847656 163.324219 72.75 163.675781 69.832031 C 164.023438 66.851562 161.988281 64.109375 159.078125 63.757812 Z M 199.121094 60.609375 C 199.058594 60.609375 198.945312 60.609375 198.886719 60.550781 C 200.222656 59.792969 201.214844 58.507812 201.5625 56.929688 C 202.144531 54.011719 200.285156 51.15625 197.433594 50.570312 C 194.523438 49.988281 191.667969 51.855469 191.085938 54.714844 C 190.914062 55.472656 190.972656 56.230469 191.085938 56.929688 C 190.621094 56.640625 190.039062 56.464844 189.515625 56.289062 C 186.605469 55.707031 183.753906 57.574219 183.171875 60.433594 C 182.589844 63.117188 184.164062 65.746094 186.664062 66.621094 C 186.375 67.085938 186.199219 67.554688 186.082031 68.136719 C 185.5 70.820312 187.246094 73.507812 189.921875 74.03125 C 192.484375 74.554688 194.984375 73.039062 195.6875 70.589844 C 196.035156 70.761719 196.441406 70.9375 196.90625 70.996094 C 199.816406 71.582031 202.671875 69.714844 203.253906 66.851562 C 203.890625 64.050781 202.027344 61.191406 199.121094 60.609375 Z M 217.628906 74.03125 C 216.929688 74.382812 216.347656 74.90625 215.9375 75.429688 C 215.824219 74.90625 215.648438 74.324219 215.414062 73.800781 C 214.019531 71.171875 210.820312 70.179688 208.199219 71.523438 C 205.929688 72.75 204.824219 75.375 205.519531 77.765625 C 206.859375 77.710938 207.910156 77.535156 208.953125 77.242188 C 213.203125 77.648438 220.476562 77.824219 225.367188 77.59375 C 225.25 77.125 225.132812 76.71875 224.902344 76.25 C 223.503906 73.679688 220.246094 72.632812 217.628906 74.03125 Z M 233.632812 55.824219 C 232.933594 55.53125 232.175781 55.414062 231.421875 55.472656 C 231.769531 55.0625 232.0625 54.539062 232.292969 54.011719 C 233.339844 51.210938 231.941406 48.121094 229.207031 47.070312 C 226.414062 46.019531 223.332031 47.417969 222.285156 50.164062 C 221.527344 52.207031 222.050781 54.480469 223.5625 55.941406 C 223.5625 55.941406 223.5625 55.941406 223.503906 55.941406 C 220.710938 54.890625 217.628906 56.289062 216.578125 59.035156 C 215.53125 61.835938 216.929688 64.925781 219.664062 65.976562 C 222.457031 67.027344 225.542969 65.628906 226.589844 62.882812 C 226.589844 62.828125 226.648438 62.769531 226.648438 62.652344 C 227.171875 64.109375 228.277344 65.277344 229.789062 65.859375 C 232.585938 66.914062 235.667969 65.511719 236.71875 62.769531 C 237.761719 60.023438 236.425781 56.875 233.632812 55.824219 Z M 163.558594 54.074219 C 163.617188 54.011719 163.675781 53.957031 163.734375 53.957031 C 163.324219 55.414062 163.558594 57.046875 164.429688 58.390625 C 166.0625 60.839844 169.4375 61.484375 171.882812 59.847656 C 174.324219 58.214844 174.964844 54.832031 173.335938 52.378906 C 172.929688 51.738281 172.347656 51.210938 171.707031 50.804688 C 172.230469 50.628906 172.753906 50.394531 173.277344 50.105469 C 175.722656 48.46875 176.363281 45.082031 174.734375 42.632812 C 173.105469 40.183594 169.726562 39.539062 167.285156 41.175781 C 165.480469 42.402344 164.605469 44.558594 165.011719 46.601562 C 165.011719 46.601562 165.011719 46.601562 165.011719 46.542969 C 163.386719 44.09375 160.007812 43.453125 157.566406 45.082031 C 155.117188 46.71875 154.480469 50.105469 156.109375 52.554688 C 157.738281 55.0625 161.113281 55.707031 163.558594 54.074219 Z M 134.632812 61.777344 C 135.15625 61.601562 135.679688 61.308594 136.085938 60.902344 C 138.359375 59.035156 138.707031 55.648438 136.84375 53.3125 C 134.984375 51.039062 131.605469 50.6875 129.277344 52.554688 C 127.59375 53.957031 126.949219 56.171875 127.53125 58.15625 C 127.53125 58.15625 127.53125 58.15625 127.53125 58.097656 C 125.671875 55.824219 122.292969 55.472656 119.96875 57.339844 C 117.699219 59.210938 117.347656 62.59375 119.210938 64.925781 C 121.070312 67.261719 124.449219 67.554688 126.777344 65.6875 C 126.835938 65.628906 126.890625 65.570312 126.949219 65.511719 C 126.660156 67.027344 127.011719 68.605469 128.054688 69.886719 C 129.921875 72.164062 133.292969 72.511719 135.621094 70.644531 C 137.894531 68.78125 138.242188 65.394531 136.378906 63.058594 C 135.855469 62.535156 135.273438 62.066406 134.632812 61.777344 Z M 252.257812 72.574219 C 251.789062 73.855469 250.859375 74.847656 249.695312 75.429688 C 248.53125 71.523438 245.214844 68.488281 241.140625 67.789062 C 242.128906 66.152344 242.710938 64.226562 242.710938 62.183594 C 242.710938 60.199219 242.1875 58.390625 241.316406 56.757812 C 242.417969 56.40625 243.640625 56.464844 244.746094 56.875 C 247.542969 57.921875 248.878906 61.015625 247.832031 63.820312 C 247.601562 64.34375 247.308594 64.871094 246.960938 65.277344 C 247.714844 65.21875 248.414062 65.335938 249.171875 65.628906 C 251.90625 66.675781 253.304688 69.769531 252.257812 72.574219 " fill-opacity="1" fill-rule="nonzero"/></svg>