<svg xmlns="http://www.w3.org/2000/svg" xmlns:xlink="http://www.w3.org/1999/xlink" width="500" zoomAndPan="magnify" viewBox="0 0 375 374.999991" height="500" preserveAspectRatio="xMidYMid meet" version="1.0"><defs><clipPath id="b46c4dfda7"><path d="M 11 33.714844 L 364 33.714844 L 364 341.214844 L 11 341.214844 Z M 11 33.714844 " clip-rule="nonzero"/></clipPath></defs><g clip-path="url(#b46c4dfda7)"><path fill="#ff3131" d="M 330.097656 211.621094 L 189.976562 339.015625 L 187.507812 341.265625 L 185.023438 339.015625 L 44.902344 211.621094 C 4.328125 174.730469 0.179688 110.621094 35.648438 68.410156 C 54.9375 45.453125 81.976562 33.714844 109.15625 33.714844 C 131.945312 33.714844 154.832031 41.992188 173.335938 58.789062 L 187.492188 71.664062 L 201.652344 58.789062 C 220.167969 41.992188 243.054688 33.714844 265.828125 33.714844 C 293.03125 33.714844 320.042969 45.453125 339.332031 68.410156 C 374.808594 110.621094 370.671875 174.730469 330.097656 211.621094 Z M 330.097656 211.621094 " fill-opacity="1" fill-rule="nonzero"/></g></svg>