<svg xmlns="http://www.w3.org/2000/svg" xmlns:xlink="http://www.w3.org/1999/xlink" width="500" zoomAndPan="magnify" viewBox="0 0 375 374.999991" height="500" preserveAspectRatio="xMidYMid meet" version="1.0"><defs><clipPath id="ea24350a20"><path d="M 37.511719 63.5625 L 337.496094 63.5625 L 337.496094 113.347656 L 37.511719 113.347656 Z M 37.511719 63.5625 " clip-rule="nonzero"/></clipPath><clipPath id="088e9f9d69"><path d="M 37.511719 162 L 337.496094 162 L 337.496094 212.914062 L 37.511719 212.914062 Z M 37.511719 162 " clip-rule="nonzero"/></clipPath><clipPath id="883ddb0a63"><path d="M 37.511719 261.539062 L 337.496094 261.539062 L 337.496094 311.484375 L 37.511719 311.484375 Z M 37.511719 261.539062 " clip-rule="nonzero"/></clipPath></defs><g clip-path="url(#ea24350a20)"><path fill="#ffffff" d="M 312.699219 113.148438 L 62.304688 113.148438 C 48.609375 113.148438 37.511719 102.046875 37.511719 88.355469 C 37.511719 74.664062 48.609375 63.566406 62.304688 63.566406 L 312.699219 63.566406 C 326.394531 63.566406 337.492188 74.664062 337.492188 88.355469 C 337.492188 102.046875 326.394531 113.148438 312.699219 113.148438 " fill-opacity="1" fill-rule="nonzero"/></g><g clip-path="url(#088e9f9d69)"><path fill="#ffffff" d="M 312.699219 212.316406 L 62.304688 212.316406 C 48.609375 212.316406 37.511719 201.21875 37.511719 187.523438 C 37.511719 173.828125 48.609375 162.730469 62.304688 162.730469 L 312.699219 162.730469 C 326.394531 162.730469 337.492188 173.828125 337.492188 187.523438 C 337.492188 201.21875 326.394531 212.316406 312.699219 212.316406 " fill-opacity="1" fill-rule="nonzero"/></g><g clip-path="url(#883ddb0a63)"><path fill="#ffffff" d="M 312.699219 311.484375 L 62.304688 311.484375 C 48.609375 311.484375 37.511719 300.386719 37.511719 286.691406 C 37.511719 273 48.609375 261.898438 62.304688 261.898438 L 312.699219 261.898438 C 326.394531 261.898438 337.492188 273 337.492188 286.691406 C 337.492188 300.386719 326.394531 311.484375 312.699219 311.484375 " fill-opacity="1" fill-rule="nonzero"/></g></svg>