<svg xmlns="http://www.w3.org/2000/svg" xmlns:xlink="http://www.w3.org/1999/xlink" width="500" zoomAndPan="magnify" viewBox="0 0 375 374.999991" height="500" preserveAspectRatio="xMidYMid meet" version="1.0"><defs><clipPath id="2e6abfa413"><path d="M 37.613281 124.429688 L 337.382812 124.429688 L 337.382812 253.0625 L 37.613281 253.0625 Z M 37.613281 124.429688 " clip-rule="nonzero"/></clipPath></defs><g clip-path="url(#2e6abfa413)"><path fill="#ffffff" d="M 101.851562 124.589844 L 273.144531 124.589844 C 308.621094 124.589844 337.382812 153.351562 337.382812 188.828125 C 337.382812 224.304688 308.621094 253.0625 273.144531 253.0625 L 101.851562 253.0625 C 66.375 253.0625 37.613281 224.304688 37.613281 188.828125 C 37.613281 153.351562 66.375 124.589844 101.851562 124.589844 " fill-opacity="1" fill-rule="nonzero"/></g><path fill="#000000" d="M 323.757812 188.828125 C 323.757812 216.777344 301.097656 239.4375 273.148438 239.4375 C 245.195312 239.4375 222.535156 216.777344 222.535156 188.828125 C 222.535156 160.875 245.195312 138.21875 273.148438 138.21875 C 301.097656 138.21875 323.757812 160.875 323.757812 188.828125 " fill-opacity="1" fill-rule="nonzero"/></svg>