<svg xmlns="http://www.w3.org/2000/svg" xmlns:xlink="http://www.w3.org/1999/xlink" width="500" zoomAndPan="magnify" viewBox="0 0 375 374.999991" height="500" preserveAspectRatio="xMidYMid meet" version="1.0"><defs><clipPath id="52520a1325"><path d="M 9.523438 5.371094 L 365.773438 5.371094 L 365.773438 369.871094 L 9.523438 369.871094 Z M 9.523438 5.371094 " clip-rule="nonzero"/></clipPath></defs><g clip-path="url(#52520a1325)"><path fill="#000000" d="M 150.554688 5.378906 C 72.75 5.378906 9.523438 68.601562 9.523438 146.410156 C 9.523438 224.214844 72.75 287.4375 150.554688 287.4375 C 181.339844 287.4375 209.789062 277.519531 232.992188 260.734375 L 342.136719 369.617188 L 365.46875 346.285156 L 257.621094 238.179688 C 278.816406 213.488281 291.582031 181.4375 291.582031 146.410156 C 291.582031 68.601562 228.359375 5.378906 150.554688 5.378906 Z M 150.554688 21.96875 C 219.382812 21.96875 274.988281 77.578125 274.988281 146.410156 C 274.988281 215.234375 219.382812 270.84375 150.554688 270.84375 C 81.726562 270.84375 26.113281 215.234375 26.113281 146.410156 C 26.113281 77.578125 81.726562 21.96875 150.554688 21.96875 Z M 150.554688 21.96875 " fill-opacity="1" fill-rule="nonzero"/></g></svg>