<svg xmlns="http://www.w3.org/2000/svg" xmlns:xlink="http://www.w3.org/1999/xlink" width="500" zoomAndPan="magnify" viewBox="0 0 375 374.999991" height="500" preserveAspectRatio="xMidYMid meet" version="1.0"><defs><clipPath id="48c4f94efa"><path d="M 9.523438 5.371094 L 365.773438 5.371094 L 365.773438 369.871094 L 9.523438 369.871094 Z M 9.523438 5.371094 " clip-rule="nonzero"/></clipPath></defs><g clip-path="url(#48c4f94efa)"><path fill="#ffffff" d="M 150.675781 5.378906 C 72.804688 5.378906 9.523438 68.644531 9.523438 146.503906 C 9.523438 224.359375 72.804688 287.628906 150.675781 287.628906 C 181.488281 287.628906 209.960938 277.703125 233.183594 260.90625 L 342.421875 369.863281 L 365.773438 346.515625 L 257.832031 238.335938 C 279.046875 213.628906 291.824219 181.558594 291.824219 146.503906 C 291.824219 68.644531 228.546875 5.378906 150.675781 5.378906 Z M 150.675781 21.980469 C 219.5625 21.980469 275.21875 77.628906 275.21875 146.503906 C 275.21875 215.378906 219.5625 271.023438 150.675781 271.023438 C 81.789062 271.023438 26.128906 215.378906 26.128906 146.503906 C 26.128906 77.628906 81.789062 21.980469 150.675781 21.980469 Z M 150.675781 21.980469 " fill-opacity="1" fill-rule="nonzero"/></g></svg>