<svg xmlns="http://www.w3.org/2000/svg" xmlns:xlink="http://www.w3.org/1999/xlink" width="500" zoomAndPan="magnify" viewBox="0 0 375 374.999991" height="500" preserveAspectRatio="xMidYMid meet" version="1.0"><defs><clipPath id="8a5412360f"><path d="M 59.132812 12.554688 L 315.632812 12.554688 L 315.632812 362.804688 L 59.132812 362.804688 Z M 59.132812 12.554688 " clip-rule="nonzero"/></clipPath></defs><g clip-path="url(#8a5412360f)"><path fill="#ffffff" d="M 211 362.441406 L 164.347656 362.441406 C 161.128906 362.441406 158.519531 359.828125 158.519531 356.609375 L 158.519531 119.292969 L 102.554688 174.164062 C 100.289062 176.386719 96.675781 176.394531 94.40625 174.175781 L 61.148438 141.796875 C 60.023438 140.699219 59.382812 139.195312 59.382812 137.621094 C 59.382812 136.046875 60.019531 134.542969 61.148438 133.445312 L 183.609375 14.210938 C 185.871094 12.003906 189.484375 12.003906 191.746094 14.210938 L 314.207031 133.445312 C 315.332031 134.542969 315.964844 136.046875 315.964844 137.621094 C 315.964844 139.195312 315.332031 140.699219 314.207031 141.796875 L 280.949219 174.175781 C 278.679688 176.382812 275.058594 176.386719 272.796875 174.164062 L 216.832031 119.292969 L 216.832031 356.609375 C 216.832031 359.828125 214.21875 362.441406 211 362.441406 Z M 211 362.441406 " fill-opacity="1" fill-rule="nonzero"/></g></svg>