<svg xmlns="http://www.w3.org/2000/svg" xmlns:xlink="http://www.w3.org/1999/xlink" width="500" zoomAndPan="magnify" viewBox="0 0 375 374.999991" height="500" preserveAspectRatio="xMidYMid meet" version="1.0"><defs><clipPath id="7173ca96e9"><path d="M 59.132812 12.554688 L 315.632812 12.554688 L 315.632812 362.441406 L 59.132812 362.441406 Z M 59.132812 12.554688 " clip-rule="nonzero"/></clipPath></defs><g clip-path="url(#7173ca96e9)"><path fill="#ffffff" d="M 211 12.554688 L 164.347656 12.554688 C 161.128906 12.554688 158.519531 15.164062 158.519531 18.382812 L 158.519531 255.699219 L 102.554688 200.828125 C 100.289062 198.605469 96.675781 198.597656 94.40625 200.816406 L 61.148438 233.199219 C 60.023438 234.292969 59.382812 235.796875 59.382812 237.371094 C 59.382812 238.949219 60.019531 240.453125 61.148438 241.546875 L 183.609375 360.785156 C 185.871094 362.988281 189.484375 362.988281 191.746094 360.785156 L 314.207031 241.546875 C 315.332031 240.453125 315.964844 238.949219 315.964844 237.371094 C 315.964844 235.796875 315.332031 234.292969 314.207031 233.199219 L 280.949219 200.816406 C 278.679688 198.609375 275.058594 198.605469 272.796875 200.828125 L 216.832031 255.699219 L 216.832031 18.382812 C 216.832031 15.164062 214.21875 12.554688 211 12.554688 Z M 211 12.554688 " fill-opacity="1" fill-rule="nonzero"/></g></svg>