<svg xmlns="http://www.w3.org/2000/svg" xmlns:xlink="http://www.w3.org/1999/xlink" width="500" zoomAndPan="magnify" viewBox="0 0 375 374.999991" height="500" preserveAspectRatio="xMidYMid meet" version="1.0"><defs><clipPath id="8abdf9ad86"><path d="M 20 40.269531 L 355 40.269531 L 355 335 L 20 335 Z M 20 40.269531 " clip-rule="nonzero"/></clipPath></defs><g clip-path="url(#8abdf9ad86)"><path fill="#ffcd05" d="M 188.03125 40.324219 L 188.640625 40.933594 L 191.691406 40.933594 L 192.910156 41.546875 L 193.519531 41.546875 L 194.742188 42.15625 L 195.960938 42.765625 L 197.183594 43.375 L 198.402344 43.984375 L 199.011719 45.207031 L 199.621094 45.816406 L 200.84375 46.425781 L 201.453125 47.644531 L 202.0625 48.253906 L 203.28125 49.476562 L 277.863281 178.808594 L 351.679688 307.378906 L 352.289062 308.601562 L 353.511719 311.039062 L 354.121094 312.261719 L 354.121094 315.308594 L 354.730469 316.53125 L 354.121094 318.359375 L 354.121094 320.800781 L 353.511719 322.019531 L 352.902344 323.242188 L 352.902344 324.460938 L 352.289062 325.070312 L 351.679688 325.679688 L 351.070312 326.902344 L 349.851562 328.121094 L 349.238281 328.730469 L 348.628906 329.953125 L 348.019531 330.5625 L 346.800781 331.171875 L 345.578125 331.78125 L 344.359375 332.394531 L 343.75 333.003906 L 342.527344 333.613281 L 341.308594 333.613281 L 340.089844 334.222656 L 337.648438 334.222656 L 336.429688 334.832031 L 187.421875 334.832031 L 39.023438 334.222656 L 34.753906 334.222656 L 33.53125 333.613281 L 32.3125 333.613281 L 31.09375 333.003906 L 30.480469 332.394531 L 29.261719 331.78125 L 28.042969 331.171875 L 26.820312 330.5625 L 25.601562 329.34375 L 24.992188 328.730469 L 24.382812 327.511719 L 23.769531 326.902344 L 23.160156 325.679688 L 21.941406 324.460938 L 21.941406 323.242188 L 21.332031 322.632812 L 21.332031 321.410156 L 20.722656 320.800781 L 20.722656 318.359375 L 20.109375 316.53125 L 20.722656 315.308594 L 20.722656 312.261719 L 21.941406 309.820312 L 21.941406 308.601562 L 23.160156 307.378906 L 96.980469 178.808594 L 171.558594 50.085938 L 172.167969 48.867188 L 173.390625 47.644531 L 174 46.425781 L 174.609375 45.816406 L 175.828125 44.59375 L 176.441406 43.984375 L 177.660156 43.375 L 178.269531 42.765625 L 180.101562 42.15625 L 181.320312 41.546875 L 182.539062 41.546875 L 183.761719 40.933594 L 186.8125 40.933594 L 188.03125 40.324219 " fill-opacity="1" fill-rule="evenodd"/></g><path fill="#1f1a17" d="M 189.25 49.476562 L 189.859375 50.085938 L 191.082031 50.695312 L 192.300781 51.304688 L 192.910156 51.304688 L 193.519531 52.527344 L 194.132812 53.136719 L 195.351562 54.355469 L 343.75 311.648438 L 344.359375 312.261719 L 344.96875 312.871094 L 344.96875 314.089844 L 345.578125 314.699219 L 345.578125 317.140625 L 344.96875 318.972656 L 343.75 321.410156 L 342.53125 322.632812 L 341.308594 323.851562 L 340.089844 324.460938 L 338.867188 325.070312 L 337.039062 325.683594 L 37.191406 325.683594 L 36.582031 325.070312 L 35.363281 325.070312 L 34.753906 324.460938 L 34.140625 324.460938 L 33.53125 323.851562 L 32.3125 323.242188 L 31.09375 322.019531 L 30.480469 320.191406 L 29.871094 318.972656 L 29.261719 317.140625 L 29.261719 315.921875 L 29.871094 314.089844 L 30.480469 312.871094 L 30.480469 311.648438 L 31.09375 311.648438 L 179.488281 54.355469 L 179.488281 53.746094 L 180.101562 53.136719 L 180.710938 52.527344 L 181.929688 51.304688 L 182.539062 50.695312 L 183.152344 50.695312 L 183.761719 50.085938 L 185.589844 50.085938 L 186.199219 49.476562 Z M 314.464844 303.71875 L 60.375 303.71875 L 187.421875 83.640625 L 314.464844 303.71875 " fill-opacity="1" fill-rule="evenodd"/><path fill="#1f1a17" d="M 166.679688 145.257812 L 167.289062 144.035156 L 167.289062 142.207031 L 167.898438 140.984375 L 167.898438 139.15625 L 168.507812 138.546875 L 168.507812 137.933594 L 170.339844 134.886719 L 171.558594 132.445312 L 174 130.613281 L 175.828125 128.785156 L 178.878906 127.5625 L 181.320312 126.34375 L 184.371094 125.734375 L 186.8125 125.734375 L 189.859375 126.34375 L 192.300781 126.953125 L 195.351562 127.5625 L 197.183594 129.394531 L 199.621094 130.613281 L 201.453125 132.445312 L 203.28125 134.886719 L 204.503906 136.714844 L 204.503906 137.933594 L 205.113281 138.546875 L 205.722656 139.765625 L 205.722656 140.984375 L 206.332031 142.207031 L 206.332031 145.253906 L 199.011719 225.632812 L 198.402344 228.070312 L 197.792969 229.902344 L 195.960938 231.730469 L 194.742188 233.5625 L 192.910156 234.78125 L 191.082031 235.394531 L 189.25 236.003906 L 184.980469 236.003906 L 182.539062 235.394531 L 180.710938 234.78125 L 177.050781 232.34375 L 175.828125 230.511719 L 174.609375 228.070312 L 174 225.632812 L 166.679688 145.253906 Z M 186.8125 248.203125 L 191.082031 248.8125 L 194.742188 250.035156 L 197.792969 251.863281 L 200.84375 254.304688 L 203.28125 257.355469 L 205.113281 260.40625 L 206.332031 264.066406 L 206.941406 268.335938 L 206.332031 271.996094 L 205.113281 275.65625 L 203.28125 279.316406 L 200.84375 282.367188 L 197.792969 284.808594 L 194.742188 286.636719 L 191.082031 287.859375 L 183.148438 287.859375 L 179.488281 286.636719 L 175.828125 284.808594 L 172.78125 282.367188 L 170.339844 279.316406 L 168.507812 275.65625 L 167.289062 271.996094 L 167.289062 264.066406 L 168.507812 260.40625 L 170.339844 257.355469 L 172.78125 254.304688 L 175.828125 251.863281 L 179.488281 250.035156 L 183.148438 248.8125 L 186.8125 248.203125 " fill-opacity="1" fill-rule="evenodd"/></svg>