<svg xmlns="http://www.w3.org/2000/svg" xmlns:xlink="http://www.w3.org/1999/xlink" width="500" zoomAndPan="magnify" viewBox="0 0 375 374.999991" height="500" preserveAspectRatio="xMidYMid meet" version="1.0"><defs><clipPath id="37156c8f4d"><path d="M 37.613281 122.8125 L 337.382812 122.8125 L 337.382812 251.449219 L 37.613281 251.449219 Z M 37.613281 122.8125 " clip-rule="nonzero"/></clipPath></defs><g clip-path="url(#37156c8f4d)"><path fill="#ff3131" d="M 273.144531 251.285156 L 101.851562 251.285156 C 66.375 251.285156 37.613281 222.527344 37.613281 187.050781 C 37.613281 151.574219 66.375 122.8125 101.851562 122.8125 L 273.144531 122.8125 C 308.621094 122.8125 337.382812 151.574219 337.382812 187.050781 C 337.382812 222.527344 308.621094 251.285156 273.144531 251.285156 " fill-opacity="1" fill-rule="nonzero"/></g><path fill="#000000" d="M 51.242188 187.050781 C 51.242188 159.097656 73.898438 136.4375 101.851562 136.4375 C 129.800781 136.4375 152.460938 159.097656 152.460938 187.050781 C 152.460938 215 129.800781 237.660156 101.851562 237.660156 C 73.898438 237.660156 51.242188 215 51.242188 187.050781 " fill-opacity="1" fill-rule="nonzero"/></svg>