<svg xmlns="http://www.w3.org/2000/svg" xmlns:xlink="http://www.w3.org/1999/xlink" width="500" zoomAndPan="magnify" viewBox="0 0 375 374.999991" height="500" preserveAspectRatio="xMidYMid meet" version="1.0"><defs><clipPath id="0478bab2d7"><path d="M 37.5 21 L 337.5 21 L 337.5 353.832031 L 37.5 353.832031 Z M 37.5 21 " clip-rule="nonzero"/></clipPath></defs><g clip-path="url(#0478bab2d7)"><path fill="#ffffff" d="M 287.5 256.414062 C 274.832031 256.414062 263.417969 261.332031 254.75 269.246094 L 136 199.996094 C 136.917969 196.246094 137.5 192.332031 137.5 188.332031 C 137.5 184.332031 136.917969 180.414062 136 176.664062 L 253.5 108.082031 C 262.417969 116.414062 274.332031 121.582031 287.5 121.582031 C 315.082031 121.582031 337.5 99.164062 337.5 71.582031 C 337.5 43.996094 315.082031 21.582031 287.5 21.582031 C 259.917969 21.582031 237.5 43.996094 237.5 71.582031 C 237.5 75.582031 238.082031 79.496094 239 83.246094 L 121.5 151.832031 C 112.582031 143.496094 100.667969 138.332031 87.5 138.332031 C 59.917969 138.332031 37.5 160.746094 37.5 188.332031 C 37.5 215.914062 59.917969 238.332031 87.5 238.332031 C 100.667969 238.332031 112.582031 233.164062 121.5 224.832031 L 240.25 294.082031 C 239.417969 297.582031 238.917969 301.246094 238.917969 304.996094 C 238.917969 331.832031 260.667969 353.582031 287.5 353.582031 C 314.332031 353.582031 336.082031 331.832031 336.082031 304.996094 C 336.082031 278.164062 314.332031 256.414062 287.5 256.414062 Z M 287.5 256.414062 " fill-opacity="1" fill-rule="nonzero"/></g></svg>