<svg xmlns="http://www.w3.org/2000/svg" xmlns:xlink="http://www.w3.org/1999/xlink" width="500" zoomAndPan="magnify" viewBox="0 0 375 374.999991" height="500" preserveAspectRatio="xMidYMid meet" version="1.0"><defs><clipPath id="5ad3288dc7"><path d="M 38 24.417969 L 333.75 24.417969 L 333.75 350.667969 L 38 350.667969 Z M 38 24.417969 " clip-rule="nonzero"/></clipPath></defs><g clip-path="url(#5ad3288dc7)"><path fill="#ffffff" d="M 231.90625 187.496094 L 332.648438 36.382812 C 334.15625 34.113281 334.304688 31.203125 333.019531 28.800781 C 331.730469 26.398438 329.226562 24.890625 326.5 24.890625 L 272.246094 24.890625 C 269.832031 24.890625 267.5625 26.070312 266.179688 28.058594 L 186.066406 143.148438 L 105.941406 28.058594 C 104.5625 26.070312 102.300781 24.890625 99.882812 24.890625 L 45.628906 24.890625 C 42.902344 24.890625 40.398438 26.390625 39.109375 28.792969 C 37.824219 31.195312 37.972656 34.113281 39.480469 36.375 L 140.222656 187.496094 L 39.480469 338.613281 C 37.972656 340.882812 37.824219 343.792969 39.109375 346.195312 C 40.398438 348.597656 42.902344 350.105469 45.628906 350.105469 L 99.882812 350.105469 C 102.300781 350.105469 104.570312 348.921875 105.949219 346.933594 L 186.066406 231.84375 L 266.1875 346.933594 C 267.570312 348.921875 269.832031 350.105469 272.246094 350.105469 L 326.5 350.105469 C 329.226562 350.105469 331.730469 348.605469 333.019531 346.203125 C 334.304688 343.800781 334.15625 340.882812 332.648438 338.621094 Z M 231.90625 187.496094 " fill-opacity="1" fill-rule="nonzero"/></g></svg>