<svg xmlns="http://www.w3.org/2000/svg" xmlns:xlink="http://www.w3.org/1999/xlink" width="500" zoomAndPan="magnify" viewBox="0 0 375 374.999991" height="500" preserveAspectRatio="xMidYMid meet" version="1.0"><defs><g/></defs><g fill="#ffffff" fill-opacity="1"><g transform="translate(132.728813, 344.264506)"><g><path d="M 76.625 0 L 35.046875 0 L 35.046875 -243.125 L 76.625 -243.125 Z M 31.6875 -307.609375 C 31.6875 -314.359375 33.742188 -320.050781 37.859375 -324.6875 C 41.984375 -329.332031 48.085938 -331.65625 56.171875 -331.65625 C 64.265625 -331.65625 70.40625 -329.332031 74.59375 -324.6875 C 78.789062 -320.050781 80.890625 -314.359375 80.890625 -307.609375 C 80.890625 -300.867188 78.789062 -295.25 74.59375 -290.75 C 70.40625 -286.257812 64.265625 -284.015625 56.171875 -284.015625 C 48.085938 -284.015625 41.984375 -286.257812 37.859375 -290.75 C 33.742188 -295.25 31.6875 -300.867188 31.6875 -307.609375 Z M 31.6875 -307.609375 "/></g></g></g></svg>