<svg xmlns="http://www.w3.org/2000/svg" xmlns:xlink="http://www.w3.org/1999/xlink" width="500" zoomAndPan="magnify" viewBox="0 0 375 374.999991" height="500" preserveAspectRatio="xMidYMid meet" version="1.0"><defs><clipPath id="1415eaae1b"><path d="M 15 37.5 L 360 37.5 L 360 337.5 L 15 337.5 Z M 15 37.5 " clip-rule="nonzero"/></clipPath></defs><g clip-path="url(#1415eaae1b)"><path fill="#ffffff" d="M 326.585938 211.027344 L 189.914062 335.285156 L 187.503906 337.484375 L 185.082031 335.285156 L 48.410156 211.027344 C 8.835938 175.046875 4.789062 112.515625 39.382812 71.339844 C 58.199219 48.949219 84.570312 37.5 111.082031 37.5 C 133.3125 37.5 155.636719 45.574219 173.683594 61.957031 L 187.492188 74.515625 L 201.300781 61.957031 C 219.359375 45.574219 241.683594 37.5 263.898438 37.5 C 290.429688 37.5 316.777344 48.949219 335.59375 71.339844 C 370.199219 112.515625 366.160156 175.046875 326.585938 211.027344 Z M 326.585938 211.027344 " fill-opacity="1" fill-rule="nonzero"/></g></svg>